# xmcd
#
# Track frame offsets: 
#        150
#        16316
#        34943
#        51018
#        75173
#        94172
#        115546
#        133431
#        156422
#        172177
#        190204
#        213167
#
# Disc length: 3171 seconds
#
# Revision: 0
# Processed by: cddbd v1.5.2PL0 Copyright (c) Steve Scherf et al.
# Submitted via: ExactAudioCopy v1.3
#
DISCID=9c0c610c
DTITLE=The Kate Lush Band - Let It Fly
DYEAR=2017
DGENRE=Blues
TTITLE0=River Flow
TTITLE1=Easy Mistake
TTITLE2=Come With Me
TTITLE3=Pack It Up
TTITLE4=Yours Or My Way
TTITLE5=Stranded
TTITLE6=Somebody Like Me
TTITLE7=I've Moved On
TTITLE8=Roll Over You
TTITLE9=High Time
TTITLE10=Good Good Love
TTITLE11=Angel From Montgomery
EXTD=
EXTT0=
EXTT1=
EXTT2=
EXTT3=
EXTT4=
EXTT5=
EXTT6=
EXTT7=
EXTT8=
EXTT9=
EXTT10=
EXTT11=
PLAYORDER=
